<svg width="120" height="103" viewBox="0 0 120 103" fill="none" xmlns="http://www.w3.org/2000/svg">
<g clip-path="url(#clip0_101_54)">
<path d="M96.1848 103H23.8155C20.0019 103 16.4204 101.339 13.9887 98.4408C4.38424 86.9971 -0.56593 72.4437 0.0515121 57.4627C0.672498 42.3904 6.89564 28.2116 17.5738 17.5374C40.9675 -5.84579 79.0328 -5.84579 102.426 17.5374C113.106 28.2116 119.328 42.3895 119.949 57.4618C120.566 72.4437 115.616 86.9971 106.012 98.4408C103.581 101.338 99.9984 103 96.1848 103ZM60.0001 4.42552C45.768 4.42552 31.5402 9.83832 20.7053 20.6675C10.8156 30.5536 5.05218 43.6858 4.47725 57.6442C3.90499 71.5211 8.48842 84.9995 17.3824 95.5958C18.9699 97.488 21.3147 98.5727 23.8155 98.5727H96.1848C98.6855 98.5727 101.031 97.4871 102.619 95.5958C111.513 84.9995 116.095 71.5211 115.524 57.6442C114.949 43.6858 109.186 30.5536 99.295 20.6675C88.4627 9.84009 74.2288 4.42552 60.0001 4.42552Z" fill="url(#paint0_linear_101_54)"/>
<path d="M101.638 39.5082C101.63 39.5082 101.622 39.5082 101.614 39.5082C97.3832 39.564 88.7921 39.4489 88.7842 39.4489C84.3558 39.5074 76.2918 39.4728 75.5078 39.4728C75.4998 39.4728 62.9968 39.5631 62.2332 39.5791C53.3561 39.696 47.1391 40.2857 41.8116 47.1382C39.1886 50.5127 37.5196 54.5655 35.9065 58.4845C34.1711 62.6993 32.5322 66.6812 29.8445 69.7006C27.3225 72.534 24.4107 73.8631 19.7954 74.2864C18.7403 74.3829 17.9581 75.3719 18.0493 76.4947C18.1353 77.5581 18.9733 78.3604 19.9575 78.3604C20.0124 78.3604 54.2924 78.4631 55.2793 78.4631H55.2899C62.3378 78.4215 67.5927 77.3988 72.0096 72.4358C75.1579 68.8984 77.0093 64.4002 78.8005 60.0509C80.3774 56.2204 81.8665 52.6033 84.1476 49.6689C87.3872 45.5019 90.5364 43.7363 101.661 43.5893C102.72 43.5751 103.568 42.6507 103.555 41.5244C103.542 40.4061 102.686 39.5082 101.638 39.5082ZM32.6279 72.5066C35.7762 68.9692 37.6277 64.472 39.418 60.1217C40.9948 56.2912 42.4839 52.6741 44.7659 49.7397C47.5626 46.143 50.2963 44.3358 58.1468 43.8142C57.0793 44.6944 56.0544 45.7543 55.0613 47.0329C52.4383 50.4073 50.7694 54.4601 49.1562 58.3791C47.4208 62.5939 45.782 66.5758 43.0943 69.5961C40.6343 72.3596 37.7526 74.0491 30.7924 74.312C31.4284 73.771 32.0379 73.1707 32.6288 72.5075L32.6279 72.5066ZM45.8785 72.4003C49.0269 68.8629 50.8783 64.3657 52.6695 60.0154C54.2464 56.185 55.7355 52.5679 58.0166 49.6335C60.8327 46.011 63.5842 44.2038 71.5649 43.6973C70.4558 44.5961 69.3919 45.6843 68.3616 47.009C65.7386 50.3834 64.0696 54.4362 62.4565 58.3552C60.7211 62.57 59.0822 66.5519 56.3946 69.5722C53.915 72.3578 51.0094 74.0526 43.9288 74.2952C44.5976 73.7383 45.2469 73.1114 45.8785 72.4021V72.4003ZM81.1915 47.0674C78.5685 50.4419 76.8995 54.4946 75.2864 58.4128C73.551 62.6275 71.9121 66.6095 69.2244 69.6297C66.7919 72.3632 63.9456 74.0446 57.1493 74.3368C57.8465 73.7631 58.5224 73.114 59.1797 72.3764C62.328 68.839 64.1795 64.3409 65.9707 59.9915C67.5475 56.161 69.0366 52.544 71.3177 49.6095C74.0869 46.0482 76.7941 44.2419 84.4665 43.7C83.3317 44.6094 82.2439 45.7153 81.1924 47.0683L81.1915 47.0674Z" fill="url(#paint1_linear_101_54)"/>
</g>
<defs>
<linearGradient id="paint0_linear_101_54" x1="19.031" y1="5.62443" x2="103.082" y2="117.17" gradientUnits="userSpaceOnUse">
<stop stop-color="#2378B7"/>
<stop offset="0.991" stop-color="#163567"/>
</linearGradient>
<linearGradient id="paint1_linear_101_54" x1="23.8606" y1="37.4221" x2="99.0792" y2="81.2676" gradientUnits="userSpaceOnUse">
<stop stop-color="#4DA9E2"/>
<stop offset="1" stop-color="#7CDB79"/>
</linearGradient>
<clipPath id="clip0_101_54">
<rect width="120" height="103" fill="white"/>
</clipPath>
</defs>
</svg>
