<svg width="127" height="109" viewBox="0 0 127 109" fill="none" xmlns="http://www.w3.org/2000/svg">
<g clip-path="url(#clip0_307_25)">
<path d="M101.796 109H25.2048C21.1687 109 17.3782 107.242 14.8047 104.175C4.63999 92.0649 -0.598943 76.6638 0.054517 60.81C0.711727 44.8598 7.29789 29.855 18.5989 18.559C43.3573 -6.18633 83.643 -6.18633 108.401 18.559C119.703 29.855 126.289 44.8588 126.946 60.8091C127.599 76.6638 122.36 92.0649 112.197 104.175C109.623 107.241 105.832 109 101.796 109ZM63.5001 4.68332C48.4377 4.68332 33.38 10.4114 21.9131 21.8714C11.4465 32.3334 5.34689 46.2306 4.73843 61.0021C4.13278 75.6874 8.98357 89.951 18.3964 101.164C20.0765 103.167 22.5581 104.315 25.2048 104.315H101.796C104.442 104.315 106.925 103.166 108.605 101.164C118.018 89.951 122.867 75.6874 122.263 61.0021C121.654 46.2306 115.555 32.3334 105.087 21.8714C93.623 10.4133 78.5588 4.68332 63.5001 4.68332Z" fill="white"/>
<path d="M66.757 47.1218L63.5272 49.8504L60.2974 47.1218C59.1536 46.1557 57.4445 46.2991 56.4779 47.4423C55.5113 48.5845 55.6547 50.2937 56.7985 51.2598L60.8168 54.6546V66.3845C60.8168 67.88 62.0299 69.0935 63.5272 69.0935C65.0244 69.0935 66.2376 67.8809 66.2376 66.3845V54.6546L70.2558 51.2598C71.3996 50.2937 71.5431 48.5845 70.5765 47.4423C69.6108 46.3 67.8998 46.1557 66.757 47.1218Z" fill="url(#paint0_linear_307_25)"/>
<path d="M78.3214 37.9557C73.5972 33.7446 67.2511 31.745 60.9096 32.4731C51.0439 33.6041 42.8874 41.5473 41.5167 51.3609C40.3383 59.7915 43.9384 68.0158 50.9118 72.8247C52.0977 73.6428 52.7784 74.8291 52.7784 76.0781V82.8482C52.7784 87.911 56.8998 92.0312 61.9662 92.0312H65.0901C70.1555 92.0312 74.2779 87.912 74.2779 82.8482V76.1999C74.2779 74.8862 74.8751 73.6727 75.836 73.0327C82.0509 68.8976 85.7617 61.986 85.7617 54.544C85.7617 48.2162 83.0494 42.1695 78.3214 37.9557ZM65.0901 86.6142H61.9662C59.8896 86.6142 58.1992 84.9256 58.1992 82.8492V80.5384C59.9289 80.9591 61.7102 81.1794 63.5066 81.1794C64.37 81.1794 65.2363 81.1297 66.1016 81.0304C67.0307 80.9235 67.9495 80.7539 68.8561 80.5281V82.8492C68.8561 84.9247 67.1667 86.6142 65.0901 86.6142ZM72.8313 68.5237C70.704 69.9396 69.3127 72.2428 68.9527 74.8497C67.8248 75.2404 66.6642 75.5122 65.4838 75.648C62.974 75.9357 60.4568 75.6639 58.1129 74.8768C57.7557 72.3131 56.2716 69.9396 53.9897 68.3654C48.7142 64.7268 45.9916 58.4983 46.885 52.1106C47.9201 44.7042 54.0778 38.709 61.5274 37.8554C62.2062 37.7776 62.8793 37.7392 63.5478 37.7392C67.6861 37.7392 71.5928 39.2169 74.7138 41.999C78.2896 45.1868 80.3409 49.7595 80.3409 54.544C80.3409 60.1691 77.5339 65.3959 72.8313 68.5237Z" fill="url(#paint1_linear_307_25)"/>
<path d="M81.2522 73.1958C81.149 73.2923 81.045 73.3879 80.9409 73.4834C79.8337 74.4898 79.7531 76.2037 80.7609 77.3103C81.2953 77.8978 82.0294 78.1958 82.7663 78.1958C83.4169 78.1958 84.0704 77.9625 84.5898 77.4902C84.7154 77.3759 84.841 77.2606 84.9648 77.1445C86.0561 76.1203 86.1095 74.4055 85.0839 73.3157C84.0582 72.2259 82.3435 72.1725 81.2531 73.1967L81.2522 73.1958Z" fill="url(#paint2_linear_307_25)"/>
<path d="M92.1491 51.9766C92.1397 51.9766 92.1304 51.9766 92.12 51.9766C90.6369 51.9766 89.4256 53.1713 89.4106 54.6574C89.4078 54.9245 89.4012 55.1906 89.389 55.4558C89.3262 56.9504 90.4878 58.2135 91.9832 58.2763C92.0216 58.2781 92.06 58.2791 92.0985 58.2791C93.5432 58.2791 94.7433 57.1396 94.8051 55.6844C94.8183 55.3621 94.8276 55.0388 94.8305 54.7146C94.8455 53.2191 93.6454 51.9934 92.1482 51.9775L92.1491 51.9766Z" fill="url(#paint3_linear_307_25)"/>
<path d="M90.8075 63.3681C89.4387 62.7666 87.8383 63.3859 87.2346 64.7559C87.1267 65.0005 87.0152 65.2432 86.9008 65.483C86.2548 66.8324 86.8267 68.4497 88.1768 69.0953C88.5537 69.2752 88.9521 69.3605 89.344 69.3605C90.3547 69.3605 91.3259 68.7917 91.791 67.8191C91.9307 67.5286 92.0647 67.2353 92.195 66.9392C92.7988 65.5702 92.1772 63.9716 90.8075 63.3681Z" fill="url(#paint4_linear_307_25)"/>
<path d="M51.6093 31.164C51.9909 31.164 52.3781 31.0834 52.7465 30.9129C52.9884 30.8005 53.2331 30.6927 53.4797 30.5877C54.8569 30.0021 55.4991 28.411 54.9131 27.0345C54.3272 25.658 52.7343 25.0161 51.358 25.6027C51.0599 25.7292 50.7636 25.8604 50.4702 25.9963C49.1117 26.625 48.5201 28.2348 49.1492 29.5926C49.6076 30.5821 50.5874 31.164 51.6112 31.164H51.6093Z" fill="url(#paint5_linear_307_25)"/>
<path d="M42.4055 37.9341C43.1443 37.9341 43.8803 37.6343 44.4156 37.043C44.5956 36.8443 44.7775 36.6485 44.9631 36.4564C46.001 35.3779 45.9663 33.6631 44.8881 32.6267C43.809 31.5894 42.0924 31.6231 41.0555 32.7017C40.8323 32.9331 40.613 33.1693 40.3964 33.4073C39.3923 34.5167 39.4767 36.2296 40.5867 37.2332C41.1052 37.7027 41.7567 37.9341 42.4055 37.9341Z" fill="url(#paint6_linear_307_25)"/>
<path d="M62.7293 28.5534C62.7556 28.5534 62.7828 28.5534 62.809 28.5525C63.0641 28.545 63.32 28.5412 63.5769 28.5412H63.6153C65.1116 28.5412 66.307 27.3287 66.307 25.8323C66.307 24.3358 65.0741 23.1233 63.5769 23.1233C63.2675 23.1233 62.959 23.128 62.6515 23.1364C61.1552 23.1795 59.9777 24.4276 60.0208 25.9232C60.063 27.3915 61.2687 28.5534 62.7293 28.5534Z" fill="url(#paint7_linear_307_25)"/>
<path d="M72.9991 30.3113C73.2466 30.4088 73.4931 30.509 73.736 30.613C74.0847 30.762 74.4466 30.8333 74.8029 30.8333C75.8539 30.8333 76.8542 30.2186 77.2948 29.1916C77.8845 27.8169 77.248 26.224 75.8726 25.6346C75.5763 25.5071 75.2773 25.3853 74.9754 25.2672C73.5803 24.7219 72.009 25.4087 71.4634 26.8021C70.9177 28.1955 71.605 29.7669 72.9981 30.3123L72.9991 30.3113Z" fill="url(#paint8_linear_307_25)"/>
<path d="M87.7568 45.2458C88.1665 46.33 89.1978 46.9981 90.2928 46.9981C90.6106 46.9981 90.935 46.9419 91.25 46.8229C92.6497 46.2944 93.3566 44.7314 92.8279 43.3315C92.7135 43.0288 92.5944 42.7271 92.4707 42.4291C91.8978 41.046 90.3144 40.3901 88.9296 40.9617C87.5468 41.5342 86.8895 43.1187 87.4624 44.5009C87.5646 44.7473 87.663 44.9956 87.7568 45.2458Z" fill="url(#paint9_linear_307_25)"/>
<path d="M35.7022 47.609C35.9956 47.7102 36.2947 47.759 36.5881 47.759C37.7113 47.759 38.7613 47.0562 39.1495 45.9355C39.2376 45.6815 39.3285 45.4304 39.4242 45.1802C39.9557 43.7822 39.2517 42.2173 37.8529 41.686C36.4522 41.1547 34.8874 41.8584 34.3568 43.2565C34.2434 43.5563 34.1327 43.859 34.0277 44.1635C33.5383 45.5775 34.2874 47.1199 35.7022 47.609Z" fill="url(#paint10_linear_307_25)"/>
<path d="M86.1527 32.7579C85.9295 32.5246 85.7026 32.295 85.472 32.0682C84.4042 31.0197 82.6875 31.0347 81.6394 32.1029C80.5903 33.1702 80.6062 34.885 81.6741 35.9335C81.8644 36.12 82.0519 36.3102 82.2356 36.5023C82.7682 37.0589 83.4807 37.3391 84.1951 37.3391C84.8682 37.3391 85.5433 37.0898 86.0683 36.5876C87.1502 35.5531 87.1867 33.8383 86.1527 32.7579Z" fill="url(#paint11_linear_307_25)"/>
<path d="M35.2934 59.0727C36.786 58.9678 37.9119 57.6719 37.806 56.1801C37.7872 55.9149 37.7732 55.6488 37.7619 55.3818C37.7038 53.8872 36.4541 52.7262 34.9484 52.7796C33.4521 52.8377 32.2867 54.0961 32.3449 55.5917C32.357 55.9159 32.3749 56.2391 32.3974 56.5615C32.4986 57.9886 33.6883 59.0802 35.0984 59.0802C35.1621 59.0802 35.2268 59.0774 35.2925 59.0737L35.2934 59.0727Z" fill="url(#paint12_linear_307_25)"/>
<path d="M40.222 65.4174C39.5798 64.0653 37.9626 63.4899 36.6116 64.1309C35.2587 64.7718 34.6831 66.3873 35.3243 67.7394C35.4631 68.0318 35.6056 68.3213 35.7528 68.608C36.2328 69.5432 37.1825 70.0811 38.1669 70.0811C38.5832 70.0811 39.006 69.9846 39.4017 69.7822C40.7339 69.0991 41.2589 67.4667 40.5764 66.1352C40.4545 65.8981 40.3364 65.6583 40.222 65.4174Z" fill="url(#paint13_linear_307_25)"/>
<path d="M46.7791 73.981C46.6732 73.8901 46.5663 73.7974 46.4613 73.7046C45.3419 72.7132 43.6281 72.8153 42.6352 73.9351C41.6424 75.0549 41.7455 76.7668 42.8658 77.7592C42.9934 77.8725 43.1227 77.985 43.253 78.0956C43.764 78.5331 44.3903 78.7468 45.0147 78.7468C45.7788 78.7468 46.5391 78.4254 47.0744 77.8004C48.0476 76.6638 47.9163 74.9537 46.7791 73.981Z" fill="url(#paint14_linear_307_25)"/>
</g>
<defs>
<linearGradient id="paint0_linear_307_25" x1="29.3851" y1="30.7358" x2="107.433" y2="88.432" gradientUnits="userSpaceOnUse">
<stop stop-color="#75D7FF"/>
<stop offset="1" stop-color="#ABF9A7"/>
</linearGradient>
<linearGradient id="paint1_linear_307_25" x1="26.8903" y1="34.1101" x2="104.938" y2="91.8063" gradientUnits="userSpaceOnUse">
<stop stop-color="#75D7FF"/>
<stop offset="1" stop-color="#ABF9A7"/>
</linearGradient>
<linearGradient id="paint2_linear_307_25" x1="26.9719" y1="34.0004" x2="105.02" y2="91.6966" gradientUnits="userSpaceOnUse">
<stop stop-color="#75D7FF"/>
<stop offset="1" stop-color="#ABF9A7"/>
</linearGradient>
<linearGradient id="paint3_linear_307_25" x1="39.8714" y1="16.5509" x2="117.919" y2="74.2472" gradientUnits="userSpaceOnUse">
<stop stop-color="#75D7FF"/>
<stop offset="1" stop-color="#ABF9A7"/>
</linearGradient>
<linearGradient id="paint4_linear_307_25" x1="33.6415" y1="24.9777" x2="111.69" y2="82.6739" gradientUnits="userSpaceOnUse">
<stop stop-color="#75D7FF"/>
<stop offset="1" stop-color="#ABF9A7"/>
</linearGradient>
<linearGradient id="paint5_linear_307_25" x1="38.5523" y1="18.335" x2="116.6" y2="76.0313" gradientUnits="userSpaceOnUse">
<stop stop-color="#75D7FF"/>
<stop offset="1" stop-color="#ABF9A7"/>
</linearGradient>
<linearGradient id="paint6_linear_307_25" x1="32.0983" y1="27.0663" x2="110.146" y2="84.7625" gradientUnits="userSpaceOnUse">
<stop stop-color="#75D7FF"/>
<stop offset="1" stop-color="#ABF9A7"/>
</linearGradient>
<linearGradient id="paint7_linear_307_25" x1="43.6524" y1="11.4356" x2="121.701" y2="69.1319" gradientUnits="userSpaceOnUse">
<stop stop-color="#75D7FF"/>
<stop offset="1" stop-color="#ABF9A7"/>
</linearGradient>
<linearGradient id="paint8_linear_307_25" x1="46.6085" y1="7.43636" x2="124.657" y2="65.1326" gradientUnits="userSpaceOnUse">
<stop stop-color="#75D7FF"/>
<stop offset="1" stop-color="#ABF9A7"/>
</linearGradient>
<linearGradient id="paint9_linear_307_25" x1="44.5515" y1="10.2194" x2="122.599" y2="67.9156" gradientUnits="userSpaceOnUse">
<stop stop-color="#75D7FF"/>
<stop offset="1" stop-color="#ABF9A7"/>
</linearGradient>
<linearGradient id="paint10_linear_307_25" x1="25.3359" y1="36.2128" x2="103.384" y2="93.909" gradientUnits="userSpaceOnUse">
<stop stop-color="#75D7FF"/>
<stop offset="1" stop-color="#ABF9A7"/>
</linearGradient>
<linearGradient id="paint11_linear_307_25" x1="46.9179" y1="7.01841" x2="124.966" y2="64.7146" gradientUnits="userSpaceOnUse">
<stop stop-color="#75D7FF"/>
<stop offset="1" stop-color="#ABF9A7"/>
</linearGradient>
<linearGradient id="paint12_linear_307_25" x1="19.3488" y1="44.3125" x2="97.3964" y2="102.009" gradientUnits="userSpaceOnUse">
<stop stop-color="#75D7FF"/>
<stop offset="1" stop-color="#ABF9A7"/>
</linearGradient>
<linearGradient id="paint13_linear_307_25" x1="15.0868" y1="50.0772" x2="93.1344" y2="107.773" gradientUnits="userSpaceOnUse">
<stop stop-color="#75D7FF"/>
<stop offset="1" stop-color="#ABF9A7"/>
</linearGradient>
<linearGradient id="paint14_linear_307_25" x1="13.252" y1="52.5584" x2="91.3007" y2="110.256" gradientUnits="userSpaceOnUse">
<stop stop-color="#75D7FF"/>
<stop offset="1" stop-color="#ABF9A7"/>
</linearGradient>
<clipPath id="clip0_307_25">
<rect width="127" height="109" fill="white"/>
</clipPath>
</defs>
</svg>
