<svg width="120" height="103" viewBox="0 0 120 103" fill="none" xmlns="http://www.w3.org/2000/svg">
<g clip-path="url(#clip0_100_11)">
<path d="M54.8975 71.4917C47.8425 70.7089 46.116 66.6934 45.9087 63.4632C45.4135 55.7305 44.3159 48.6203 42.8197 43.4404C40.9559 36.9907 38.5942 33.7685 35.5991 33.5897C27.8336 33.1266 25.6358 54.2368 25.0591 63.3348L25.0494 63.4942C24.8545 66.5836 24.7013 69.0239 20.6467 71.8441C19.5819 72.5843 19.2816 74.1064 19.9752 75.2425C20.6688 76.3785 22.0933 76.6991 23.1581 75.9597C29.1359 71.8007 29.4264 67.1901 29.639 63.8236L29.6488 63.6669C30.1032 56.4982 31.0086 50.1955 32.2674 45.4388C33.7273 39.9207 35.0738 38.7253 35.3723 38.5208C35.8489 38.797 37.2237 40.4794 38.603 45.53C39.9043 50.2956 40.869 56.7833 41.3182 63.7979C41.5343 67.1671 43.2431 75.1362 54.4209 76.3768C54.5015 76.3856 54.5821 76.39 54.6618 76.39C55.8259 76.39 56.8242 75.4506 56.9465 74.1879C57.0776 72.8385 56.1607 71.6316 54.8975 71.4917Z" fill="url(#paint0_linear_100_11)"/>
<path d="M69.4441 71.4919C62.3892 70.7091 60.6618 66.6936 60.4545 63.4634C59.9593 55.7307 58.8617 48.6205 57.3655 43.4406C55.5016 36.9909 53.1399 33.7687 50.1449 33.5898C47.6583 33.4429 45.5473 35.4475 43.8721 39.5507C43.3645 40.7939 43.8969 42.2416 45.0618 42.7835C46.2276 43.3263 47.5821 42.757 48.0897 41.5138C49.0048 39.2736 49.7117 38.6609 49.919 38.521C50.3956 38.7963 51.7704 40.4778 53.1506 45.5302C54.4519 50.2958 55.4157 56.7835 55.8657 63.7981C56.0819 67.1673 57.7907 75.1364 68.9693 76.3769C69.0499 76.3858 69.1305 76.3902 69.2103 76.3902C70.3743 76.3902 71.3727 75.4507 71.4949 74.1881C71.626 72.8386 70.7074 71.6318 69.4441 71.4919Z" fill="url(#paint1_linear_100_11)"/>
<path d="M84.2548 71.4919C77.2007 70.7091 75.4733 66.6936 75.266 63.4634C74.7708 55.7307 73.6732 48.6205 72.177 43.4406C70.3132 36.9909 67.9515 33.7687 64.9564 33.5898C62.4609 33.4375 60.3588 35.4475 58.6836 39.5507C58.176 40.7939 58.7084 42.2416 59.8733 42.7835C61.0373 43.3246 62.3936 42.757 62.9012 41.5138C63.8154 39.2736 64.5232 38.6609 64.7305 38.521C65.2071 38.7963 66.5819 40.4778 67.9621 45.5302C69.2634 50.2958 70.2281 56.7835 70.6772 63.7981C70.8934 67.1673 72.6022 75.1364 83.78 76.3769C83.8606 76.3858 83.9412 76.3902 84.0209 76.3902C85.1849 76.3902 86.1833 75.4508 86.3055 74.1881C86.4366 72.8386 85.518 71.6318 84.2548 71.4919Z" fill="url(#paint2_linear_100_11)"/>
<path d="M99.1691 71.4919C92.115 70.7091 90.3876 66.6936 90.1803 63.4634C89.6851 55.7307 88.5875 48.6205 87.0913 43.4406C85.2274 36.9909 82.8657 33.7687 79.8707 33.5898C77.3787 33.4375 75.2731 35.4475 73.5979 39.5507C73.0903 40.7939 73.6227 42.2416 74.7876 42.7835C75.9516 43.3246 77.3079 42.757 77.8155 41.5138C78.7297 39.2736 79.4375 38.6609 79.6448 38.521C80.1214 38.7963 81.4962 40.4778 82.8764 45.5302C84.1777 50.2958 85.1424 56.7835 85.5915 63.7981C85.8077 67.1673 87.5165 75.1364 98.6942 76.3769C98.7749 76.3858 98.8555 76.3902 98.9352 76.3902C100.099 76.3902 101.098 75.4508 101.22 74.1881C101.351 72.8386 100.432 71.6318 99.1691 71.4919Z" fill="url(#paint3_linear_100_11)"/>
<path d="M96.1848 103H23.8155C20.0019 103 16.4204 101.339 13.9887 98.4408C4.38424 86.9971 -0.56593 72.4437 0.0515121 57.4627C0.672498 42.3904 6.89564 28.2116 17.5738 17.5374C40.9675 -5.84579 79.0328 -5.84579 102.426 17.5374C113.106 28.2116 119.328 42.3895 119.949 57.4618C120.566 72.4437 115.616 86.9971 106.012 98.4408C103.581 101.338 99.9984 103 96.1848 103ZM60.0001 4.42552C45.768 4.42552 31.5402 9.83832 20.7053 20.6675C10.8156 30.5536 5.05218 43.6858 4.47725 57.6442C3.90499 71.5211 8.48842 84.9995 17.3824 95.5958C18.9699 97.488 21.3147 98.5727 23.8155 98.5727H96.1848C98.6855 98.5727 101.031 97.4871 102.619 95.5958C111.513 84.9995 116.095 71.5211 115.524 57.6442C114.949 43.6858 109.186 30.5536 99.295 20.6675C88.4627 9.84009 74.2288 4.42552 60.0001 4.42552Z" fill="url(#paint4_linear_100_11)"/>
</g>
<defs>
<linearGradient id="paint0_linear_100_11" x1="16.4318" y1="47.6782" x2="91.5892" y2="91.6255" gradientUnits="userSpaceOnUse">
<stop stop-color="#4DA9E2"/>
<stop offset="1" stop-color="#7CDB79"/>
</linearGradient>
<linearGradient id="paint1_linear_100_11" x1="23.9288" y1="34.8587" x2="99.0854" y2="78.8061" gradientUnits="userSpaceOnUse">
<stop stop-color="#4DA9E2"/>
<stop offset="1" stop-color="#7CDB79"/>
</linearGradient>
<linearGradient id="paint2_linear_100_11" x1="27.6999" y1="28.409" x2="102.856" y2="72.3564" gradientUnits="userSpaceOnUse">
<stop stop-color="#4DA9E2"/>
<stop offset="1" stop-color="#7CDB79"/>
</linearGradient>
<linearGradient id="paint3_linear_100_11" x1="31.4975" y1="21.9151" x2="106.654" y2="65.8615" gradientUnits="userSpaceOnUse">
<stop stop-color="#4DA9E2"/>
<stop offset="1" stop-color="#7CDB79"/>
</linearGradient>
<linearGradient id="paint4_linear_100_11" x1="19.031" y1="5.62443" x2="103.082" y2="117.17" gradientUnits="userSpaceOnUse">
<stop stop-color="#2378B7"/>
<stop offset="0.991" stop-color="#163567"/>
</linearGradient>
<clipPath id="clip0_100_11">
<rect width="120" height="103" fill="white"/>
</clipPath>
</defs>
</svg>
