<svg width="120" height="103" viewBox="0 0 120 103" fill="none" xmlns="http://www.w3.org/2000/svg">
<g clip-path="url(#clip0_333_17)">
<path d="M96.1847 103H23.8155C20.0019 103 16.4204 101.339 13.9887 98.4408C4.38424 86.9971 -0.56593 72.4437 0.0515121 57.4627C0.672498 42.3904 6.89564 28.2116 17.5738 17.5374C40.9675 -5.84579 79.0328 -5.84579 102.426 17.5374C113.105 28.2116 119.328 42.3895 119.949 57.4618C120.566 72.4437 115.616 86.9971 106.012 98.4408C103.581 101.338 99.9984 103 96.1847 103ZM60.0001 4.42552C45.768 4.42552 31.5402 9.83832 20.7053 20.6675C10.8156 30.5536 5.05218 43.6858 4.47725 57.6442C3.90499 71.5211 8.48842 84.9995 17.3824 95.5958C18.9699 97.488 21.3147 98.5727 23.8155 98.5727H96.1847C98.6855 98.5727 101.031 97.4871 102.619 95.5958C111.513 84.9995 116.095 71.5211 115.524 57.6442C114.949 43.6858 109.186 30.5536 99.295 20.6675C88.4627 9.84009 74.2288 4.42552 60.0001 4.42552Z" fill="url(#paint0_linear_333_17)"/>
<path d="M56.0739 62.6957C54.5821 62.6957 53.0903 62.2849 51.7899 61.4632L34.6618 50.6482C32.565 49.3236 31.3124 47.1205 31.3124 44.7546C31.3124 42.3887 32.5641 40.1856 34.6618 38.861C34.7008 38.8362 34.7416 38.8123 34.7823 38.7902L58.6721 25.6004C61.265 23.9968 64.595 24.0101 67.1763 25.6411L84.3044 36.457C86.4012 37.7816 87.6538 39.9846 87.6538 42.3506C87.6538 44.7165 86.4021 46.9195 84.3044 48.2433C84.2654 48.2681 84.2247 48.292 84.1839 48.3141L60.2941 61.5039C59.0087 62.2991 57.5409 62.6957 56.0739 62.6957ZM37.1467 42.9058C36.4548 43.3618 36.0588 44.0329 36.0588 44.7555C36.0588 45.4948 36.4734 46.1802 37.1963 46.6371L54.3243 57.4521C55.3537 58.102 56.7914 58.1029 57.8217 57.4521C57.8607 57.4273 57.9014 57.4034 57.9422 57.3812L81.8178 44.1994C82.5096 43.7434 82.9056 43.0722 82.9056 42.3506C82.9056 41.6112 82.491 40.9259 81.7682 40.469L64.6401 29.6531C63.6108 29.0032 62.173 29.0023 61.1428 29.6531C61.1038 29.6779 61.063 29.7018 61.0223 29.7239L37.1467 42.9058Z" fill="url(#paint1_linear_333_17)"/>
<path d="M56.0739 73.1919C54.5812 73.1919 53.0894 72.7838 51.7872 71.9665L36.818 62.5213L34.6512 61.1382C32.503 59.795 31.246 57.5291 31.308 55.0879C31.3408 53.7986 32.3976 52.7759 33.6794 52.7759C33.6998 52.7759 33.7202 52.7759 33.7405 52.7759C35.0507 52.8096 36.0863 53.8978 36.0535 55.2083C36.034 55.9654 36.4468 56.664 37.1865 57.1262L39.3613 58.5137L54.3155 67.95C55.3484 68.5982 56.7976 68.5982 57.8359 67.9465C57.8775 67.9199 57.92 67.8951 57.9634 67.8721L79.6731 56.0637L81.7602 54.7319C82.499 54.2697 82.9127 53.5888 82.9127 52.8521C82.9127 51.5416 83.9757 50.4799 85.2868 50.4799C86.5979 50.4799 87.6609 51.5425 87.6609 52.8521C87.6609 55.2242 86.403 57.4264 84.2964 58.743L82.1588 60.1075C82.1119 60.1376 82.0641 60.1651 82.0162 60.1917L60.2923 72.0072C59.007 72.7961 57.54 73.1902 56.0739 73.1902V73.1919Z" fill="url(#paint2_linear_333_17)"/>
<path d="M56.0739 83.7023C54.5812 83.7023 53.0895 83.2941 51.7872 82.4769L34.6601 71.6539C32.503 70.2885 31.2504 68.0262 31.308 65.6C31.3381 64.309 32.3949 63.2828 33.6794 63.2828C33.698 63.2828 33.7166 63.2828 33.7361 63.2828C35.0463 63.3138 36.0837 64.4002 36.0535 65.7107C36.0358 66.4678 36.4531 67.1717 37.1981 67.6437L54.3173 78.4613C55.3493 79.1086 56.7985 79.1086 57.8359 78.4578C57.8731 78.4339 57.9112 78.4117 57.9493 78.3905L81.8178 65.2051C82.4955 64.758 82.8826 64.1293 82.9101 63.4289C82.9606 62.1193 84.0608 61.0975 85.3745 61.1506C86.6838 61.202 87.7052 62.3044 87.6538 63.614C87.5644 65.9037 86.3445 67.9571 84.3071 69.2463C84.2672 69.272 84.2264 69.2959 84.1857 69.319L60.2994 82.514C59.0123 83.3056 57.5427 83.7023 56.0739 83.7023Z" fill="url(#paint3_linear_333_17)"/>
<path d="M42.8277 42.4126C41.0905 43.3122 41.0639 44.9264 42.7772 46.0181C44.4904 47.1099 47.2951 47.2604 49.0278 46.3511C50.7605 45.4417 50.7605 43.8328 49.0499 42.749C47.3393 41.6652 44.5595 41.5165 42.8277 42.4126Z" fill="url(#paint4_linear_333_17)"/>
<path d="M51.4506 37.949C49.7418 38.8335 49.7329 40.4265 51.4391 41.505C53.1452 42.5834 55.9215 42.7357 57.6259 41.8423C59.3303 40.9489 59.3135 39.3613 57.6091 38.2899C55.9047 37.2185 53.1532 37.067 51.4506 37.949Z" fill="url(#paint5_linear_333_17)"/>
<path d="M59.9841 33.5314C58.3027 34.4018 58.3116 35.9717 60.0115 37.0378C61.7115 38.1039 64.4585 38.258 66.1346 37.3787C67.8106 36.4995 67.7778 34.934 66.0805 33.8758C64.3832 32.8177 61.6601 32.6637 59.9841 33.5314Z" fill="url(#paint6_linear_333_17)"/>
<path d="M53.054 48.9091C51.3248 49.8238 50.6702 51.0466 52.3994 52.1481C54.1285 53.2497 57.5931 53.8119 59.317 52.8875C61.0409 51.9631 61.0205 50.333 59.2922 49.2376C57.5639 48.1423 54.777 47.9962 53.0531 48.9083L53.054 48.9091Z" fill="url(#paint7_linear_333_17)"/>
<path d="M61.6353 44.3694C59.9345 45.269 59.9469 46.8823 61.6699 47.9723C63.3929 49.0623 66.1771 49.2111 67.8726 48.3017C69.5628 47.3959 69.531 45.7853 67.8097 44.7023C66.0885 43.6194 63.33 43.4724 61.6353 44.3694Z" fill="url(#paint8_linear_333_17)"/>
<path d="M70.1271 39.8775C68.4546 40.762 68.4839 42.3532 70.1998 43.4299C71.9157 44.5066 74.6707 44.6572 76.3388 43.7629C78.0068 42.8685 77.9528 41.2836 76.2387 40.2139C74.5245 39.1443 71.7943 38.9955 70.1271 39.8775Z" fill="url(#paint9_linear_333_17)"/>
</g>
<defs>
<linearGradient id="paint0_linear_333_17" x1="19.031" y1="5.62443" x2="103.082" y2="117.17" gradientUnits="userSpaceOnUse">
<stop stop-color="#2378B7"/>
<stop offset="0.991" stop-color="#163567"/>
</linearGradient>
<linearGradient id="paint1_linear_333_17" x1="36.0668" y1="21.8513" x2="88.6807" y2="70.6558" gradientUnits="userSpaceOnUse">
<stop stop-color="#4DA9E2"/>
<stop offset="1" stop-color="#7CDB79"/>
</linearGradient>
<linearGradient id="paint2_linear_333_17" x1="30.3468" y1="28.0185" x2="82.9608" y2="76.8221" gradientUnits="userSpaceOnUse">
<stop stop-color="#4DA9E2"/>
<stop offset="1" stop-color="#7CDB79"/>
</linearGradient>
<linearGradient id="paint3_linear_333_17" x1="25.0662" y1="33.7111" x2="77.6811" y2="82.5147" gradientUnits="userSpaceOnUse">
<stop stop-color="#4DA9E2"/>
<stop offset="1" stop-color="#7CDB79"/>
</linearGradient>
<linearGradient id="paint4_linear_333_17" x1="29.3804" y1="29.0607" x2="81.9943" y2="77.8643" gradientUnits="userSpaceOnUse">
<stop stop-color="#4DA9E2"/>
<stop offset="1" stop-color="#7CDB79"/>
</linearGradient>
<linearGradient id="paint5_linear_333_17" x1="35.5982" y1="22.356" x2="88.213" y2="71.1605" gradientUnits="userSpaceOnUse">
<stop stop-color="#4DA9E2"/>
<stop offset="1" stop-color="#7CDB79"/>
</linearGradient>
<linearGradient id="paint6_linear_333_17" x1="41.7522" y1="15.7222" x2="94.3662" y2="64.5257" gradientUnits="userSpaceOnUse">
<stop stop-color="#4DA9E2"/>
<stop offset="1" stop-color="#7CDB79"/>
</linearGradient>
<linearGradient id="paint7_linear_333_17" x1="30.8261" y1="27.5014" x2="83.44" y2="76.3049" gradientUnits="userSpaceOnUse">
<stop stop-color="#4DA9E2"/>
<stop offset="1" stop-color="#7CDB79"/>
</linearGradient>
<linearGradient id="paint8_linear_333_17" x1="37.1086" y1="20.7286" x2="89.7225" y2="69.5321" gradientUnits="userSpaceOnUse">
<stop stop-color="#4DA9E2"/>
<stop offset="1" stop-color="#7CDB79"/>
</linearGradient>
<linearGradient id="paint9_linear_333_17" x1="43.2804" y1="14.0743" x2="95.8943" y2="62.8779" gradientUnits="userSpaceOnUse">
<stop stop-color="#4DA9E2"/>
<stop offset="1" stop-color="#7CDB79"/>
</linearGradient>
<clipPath id="clip0_333_17">
<rect width="120" height="103" fill="white"/>
</clipPath>
</defs>
</svg>
