<svg width="120" height="103" viewBox="0 0 120 103" fill="none" xmlns="http://www.w3.org/2000/svg">
<g clip-path="url(#clip0_101_70)">
<path d="M96.1848 103H23.8155C20.0019 103 16.4204 101.339 13.9887 98.4408C4.38424 86.9971 -0.56593 72.4437 0.0515121 57.4627C0.672498 42.3904 6.89564 28.2116 17.5738 17.5374C40.9675 -5.84579 79.0328 -5.84579 102.426 17.5374C113.106 28.2116 119.328 42.3895 119.949 57.4618C120.566 72.4437 115.616 86.9971 106.012 98.4408C103.581 101.338 99.9984 103 96.1848 103ZM60.0001 4.42552C45.768 4.42552 31.5402 9.83832 20.7053 20.6675C10.8156 30.5536 5.05218 43.6858 4.47725 57.6442C3.90499 71.5211 8.48842 84.9995 17.3824 95.5958C18.9699 97.488 21.3147 98.5727 23.8155 98.5727H96.1848C98.6855 98.5727 101.031 97.4871 102.619 95.5958C111.513 84.9995 116.095 71.5211 115.524 57.6442C114.949 43.6858 109.186 30.5536 99.295 20.6675C88.4627 9.84009 74.2288 4.42552 60.0001 4.42552Z" fill="url(#paint0_linear_101_70)"/>
<path d="M47.9878 37.1529C47.9949 37.0786 47.9993 37.0042 47.9993 36.9298C47.9993 33.9547 42.918 32.1138 38.2106 32.1138C33.5031 32.1138 28.4218 33.9547 28.4218 36.9298C28.4218 37.0184 28.4289 37.1078 28.4396 37.1963C28.4289 37.2742 28.4218 37.3522 28.4218 37.4327V45.1566C28.4218 45.8889 28.7948 46.6468 29.4725 47.3463V61.2179L29.4742 61.2772C29.4902 61.7359 29.9065 72.6217 34.1994 82.9444L34.3473 83.2454C34.8797 84.1752 36.1545 85.1696 38.1353 85.1704C40.078 85.1704 41.3403 84.1769 41.8736 83.2472L42.0224 82.9444C46.3259 72.5961 46.7334 61.7031 46.7485 61.2445V47.581C46.8326 47.5066 46.9159 47.4313 46.9921 47.3543C47.8434 46.4866 48.0099 45.6613 47.9993 45.1398C47.9984 44.9627 47.9993 39.9643 47.9993 37.346C47.9993 37.2796 47.9949 37.2149 47.9878 37.1512V37.1529ZM44.5028 44.9096C43.9562 45.5037 41.568 46.7602 38.2106 46.7602C34.8532 46.7602 32.4587 45.4948 31.9183 44.898V40.77C33.5722 41.5289 35.7293 42.0274 38.2106 42.0274C40.6919 42.0274 42.8489 41.5298 44.5028 40.7709C44.5028 43.4415 44.5028 44.4925 44.5028 44.9096ZM38.2106 35.6078C41.1162 35.6078 43.2431 36.3994 44.1538 36.967C43.2493 37.6081 41.0869 38.5325 38.2106 38.5325C35.3342 38.5325 33.1718 37.6081 32.2674 36.967C33.178 36.3994 35.305 35.6078 38.2106 35.6078ZM43.2529 61.1568C43.2263 61.8811 42.7949 71.9063 38.8431 81.4834C38.7678 81.5489 38.5649 81.6755 38.1353 81.6755C37.6702 81.6755 37.4558 81.5454 37.3761 81.479C33.4376 71.9302 32.9964 61.9165 32.9689 61.186V49.421C34.4474 49.9363 36.2254 50.2551 38.2106 50.2551C39.9468 50.2551 41.7115 49.9602 43.2529 49.4555V61.1568Z" fill="url(#paint1_linear_101_70)"/>
<path d="M69.6665 37.1529C69.6736 37.0786 69.678 37.0042 69.678 36.9298C69.678 33.9547 64.5967 32.1138 59.8893 32.1138C55.1818 32.1138 50.1005 33.9547 50.1005 36.9298C50.1005 37.0184 50.1076 37.1078 50.1183 37.1963C50.1076 37.2742 50.1005 37.3522 50.1005 37.4327V45.1566C50.1005 45.8889 50.4735 46.6468 51.1512 47.3463V61.2179L51.1529 61.2772C51.1689 61.7359 51.5852 72.6217 55.8781 82.9444L56.026 83.2454C56.5584 84.1752 57.8332 85.1696 59.814 85.1704C61.7567 85.1704 63.019 84.1769 63.5523 83.2472L63.7011 82.9444C68.0046 72.5961 68.4121 61.7031 68.4272 61.2445V47.581C68.5113 47.5066 68.5946 47.4313 68.6708 47.3543C69.5221 46.4866 69.6886 45.6613 69.678 45.1398C69.6771 44.9627 69.678 39.9643 69.678 37.346C69.678 37.2796 69.6736 37.2149 69.6665 37.1512V37.1529ZM66.1815 44.9096C65.6349 45.5037 63.2467 46.7602 59.8893 46.7602C56.5319 46.7602 54.1374 45.4948 53.597 44.898V40.77C55.2509 41.5289 57.408 42.0274 59.8893 42.0274C62.3706 42.0274 64.5276 41.5298 66.1815 40.7709C66.1815 43.4415 66.1815 44.4925 66.1815 44.9096ZM59.8893 35.6078C62.7949 35.6078 64.9218 36.3994 65.8325 36.967C64.928 37.6081 62.7656 38.5325 59.8893 38.5325C57.0129 38.5325 54.8505 37.6081 53.946 36.967C54.8567 36.3994 56.9837 35.6078 59.8893 35.6078ZM64.9316 61.1568C64.905 61.8811 64.4736 71.9063 60.5218 81.4834C60.4465 81.5489 60.2436 81.6755 59.814 81.6755C59.3489 81.6755 59.1345 81.5454 59.0548 81.479C55.1163 71.9302 54.6751 61.9165 54.6476 61.186V49.421C56.1261 49.9363 57.9041 50.2551 59.8893 50.2551C61.6255 50.2551 63.3902 49.9602 64.9316 49.4555V61.1568Z" fill="url(#paint2_linear_101_70)"/>
<path d="M91.3452 37.1529C91.3523 37.0786 91.3567 37.0042 91.3567 36.9298C91.3567 33.9547 86.2754 32.1138 81.568 32.1138C76.8605 32.1138 71.7792 33.9547 71.7792 36.9298C71.7792 37.0184 71.7863 37.1078 71.797 37.1963C71.7863 37.2742 71.7792 37.3522 71.7792 37.4327V45.1566C71.7792 45.8889 72.1522 46.6468 72.8299 47.3463V61.2179L72.8316 61.2772C72.8476 61.7359 73.2639 72.6217 77.5568 82.9444L77.7047 83.2454C78.2371 84.1752 79.5119 85.1696 81.4927 85.1704C83.4353 85.1704 84.6977 84.1769 85.231 83.2472L85.3798 82.9444C89.6833 72.5961 90.0908 61.7031 90.1059 61.2445V47.581C90.19 47.5066 90.2733 47.4313 90.3495 47.3543C91.2008 46.4866 91.3673 45.6613 91.3567 45.1398C91.3558 44.9627 91.3567 39.9643 91.3567 37.346C91.3567 37.2796 91.3523 37.2149 91.3452 37.1512V37.1529ZM87.8602 44.9096C87.3136 45.5037 84.9254 46.7602 81.568 46.7602C78.2106 46.7602 75.8161 45.4948 75.2757 44.898V40.77C76.9296 41.5289 79.0867 42.0274 81.568 42.0274C84.0492 42.0274 86.2063 41.5298 87.8602 40.7709C87.8602 43.4415 87.8602 44.4925 87.8602 44.9096ZM81.568 35.6078C84.4736 35.6078 86.6005 36.3994 87.5112 36.967C86.6067 37.6081 84.4443 38.5325 81.568 38.5325C78.6916 38.5325 76.5292 37.6081 75.6247 36.967C76.5354 36.3994 78.6623 35.6078 81.568 35.6078ZM86.6103 61.1568C86.5837 61.8811 86.1523 71.9063 82.2005 81.4834C82.1252 81.5489 81.9223 81.6755 81.4927 81.6755C81.0276 81.6755 80.8132 81.5454 80.7335 81.479C76.795 71.9302 76.3538 61.9165 76.3263 61.186V49.421C77.8048 49.9363 79.5828 50.2551 81.568 50.2551C83.3042 50.2551 85.0689 49.9602 86.6103 49.4555V61.1568Z" fill="url(#paint3_linear_101_70)"/>
</g>
<defs>
<linearGradient id="paint0_linear_101_70" x1="19.031" y1="5.62443" x2="103.082" y2="117.17" gradientUnits="userSpaceOnUse">
<stop stop-color="#2378B7"/>
<stop offset="0.991" stop-color="#163567"/>
</linearGradient>
<linearGradient id="paint1_linear_101_70" x1="20.3242" y1="38.753" x2="86.5396" y2="104.999" gradientUnits="userSpaceOnUse">
<stop stop-color="#4DA9E2"/>
<stop offset="1" stop-color="#7CDB79"/>
</linearGradient>
<linearGradient id="paint2_linear_101_70" x1="31.1636" y1="27.9185" x2="97.3799" y2="94.1647" gradientUnits="userSpaceOnUse">
<stop stop-color="#4DA9E2"/>
<stop offset="1" stop-color="#7CDB79"/>
</linearGradient>
<linearGradient id="paint3_linear_101_70" x1="42.0029" y1="17.084" x2="108.219" y2="83.3302" gradientUnits="userSpaceOnUse">
<stop stop-color="#4DA9E2"/>
<stop offset="1" stop-color="#7CDB79"/>
</linearGradient>
<clipPath id="clip0_101_70">
<rect width="120" height="103" fill="white"/>
</clipPath>
</defs>
</svg>
